<?xml version="1.0" encoding="utf-8"?><svg version="1.1" xmlns="http://www.w3.org/2000/svg" x="0" y="0" width="970" height="390" viewBox="0 0 970 390"><title>Kuba Logo (1950)</title><path d="M137.493,370.729c-0.212-0.201-1.961-0.59-3.886-0.863c-4.44-0.632-7.116-1.714-6.541-2.646c0.247-0.398-0.543-0.641-1.756-0.539c-2.23,0.188-5.387-1.637-9.412-5.44c-1.214-1.147-2.648-2.086-3.186-2.086c-0.538,0-1.989-1.8-3.226-4c-1.236-2.2-2.58-4-2.986-4c-0.406,0-1.258-1.575-1.894-3.5c-0.635-1.925-1.472-3.5-1.859-3.5c-0.387,0-0.801-1.165-0.918-2.59c-0.118-1.424-0.532-3.104-0.921-3.732c-0.966-1.563-1.224-4.097-1.165-11.428c0.074-9.122,0.279-11.25,1.082-11.25c0.396,0,0.473-0.64,0.173-1.422c-0.3-0.782,0.035-2.47,0.744-3.75c0.709-1.28,1.194-2.666,1.077-3.078c-0.117-0.412,0.537-0.75,1.454-0.75c0.917,0,1.401,0.266,1.077,0.59c-0.324,0.324,1.585,2.753,4.243,5.396c2.658,2.645,5.304,5.688,5.88,6.765c0.576,1.076,2.642,3.865,4.59,6.197c3.916,4.688,4.109,5.299,2.293,7.254c-4.311,4.64-1.268,15.861,5.564,20.519c3.716,2.534,10.589,4.285,12.711,3.238c0.811-0.4,2.823-1.342,4.471-2.093c3.716-1.694,13.038-11.055,15.186-15.249c0.878-1.715,1.872-3.342,2.207-3.617c0.879-0.72,3.861-7.354,3.725-8.286c-0.063-0.433,0.357-1.108,0.934-1.5c0.878-0.598,2.866-6.003,3.572-9.714c0.104-0.55,0.838-2.551,1.629-4.445c0.792-1.895,1.648-4.37,1.903-5.5c0.852-3.776,1.192-5.055,1.346-5.055c0.084,0,0.328-0.675,0.542-1.5c0.214-0.825,1.281-4.666,2.372-8.535c1.09-3.87,2.226-8.37,2.524-10c0.298-1.631,0.75-3.864,1.004-4.965c0.254-1.1,0.669-2.899,0.921-4c0.252-1.1,0.981-3.35,1.619-5c0.637-1.649,1.133-3.225,1.101-3.5c-0.086-0.739,0.923-4.214,1.888-6.5c1.566-3.712,3.813-9.993,3.934-11c0.247-2.05,1.362-5.178,4.103-11.5c3.222-7.435,4.179-9.922,4.579-11.899c0.155-0.771,0.828-1.737,1.495-2.149c0.667-0.412,0.947-1.44,0.623-2.285c-0.324-0.846-0.277-1.678,0.104-1.852c0.382-0.173,2.01-3.015,3.619-6.314c1.608-3.3,3.253-6.225,3.654-6.5c0.401-0.274,0.827-0.95,0.945-1.5c0.834-3.872,11.635-22.604,14.127-24.5c0.361-0.274,0.588-0.822,0.503-1.218c-0.085-0.395,0.633-1.637,1.595-2.761c0.963-1.124,1.75-2.263,1.75-2.53c0-0.888,7.455-10.884,10.25-13.745c1.513-1.548,2.757-3.137,2.766-3.53c0.02-0.896,3.891-5.422,13.556-15.853c14.723-15.891,16.428-17.829,16.428-18.675c0-0.47-0.337-0.686-0.75-0.479c-27.027,13.563-45.539,16.988-64.099,11.861c-5.004-1.383-18.579-7.66-20.413-9.439c-0.681-0.66-4.163-3.074-7.738-5.364c-3.575-2.289-6.994-4.59-7.597-5.112c-0.604-0.521-4.42-2.407-8.48-4.189c-6.928-3.04-12.373-3.901-17.354-2.744c-3.079,0.716-9.341,7.754-9.994,11.232c-1.164,6.202,2.243,11.546,7.36,11.546c3.875,0,3.16,0.949-7.502,9.947c-1.595,1.345-7.131,5.295-12.302,8.776l-9.403,6.331l-2.833-3.173c-1.558-1.745-2.595-3.558-2.304-4.027c0.29-0.47-0.023-0.854-0.698-0.854s-0.941-0.284-0.594-0.631c0.347-0.348,0.155-1.522-0.428-2.611c-1.365-2.551-1.977-19.758-0.703-19.758c0.523,0,0.692-0.419,0.376-0.931s-0.111-1.218,0.457-1.569c0.568-0.351,0.811-0.998,0.539-1.438c-0.743-1.203,5.268-13.063,6.621-13.063c0.646,0,0.892-0.282,0.547-0.627c-0.882-0.882,9.026-8.855,14.895-11.986c2.694-1.437,7.354-3.255,10.354-4.04c7.332-1.919,26.873-1.807,30.075,0.172c0.552,0.341,2.233,0.838,3.736,1.104c1.503,0.267,8.358,1.871,15.233,3.566s13.85,3.208,15.5,3.361c1.65,0.153,3,0.354,3,0.448c0,0.093,1.125,0.354,2.5,0.579c4.705,0.771,35.5,0.236,35.5-0.617c0-0.087,1.125-0.307,2.5-0.488s5.2-1.045,8.5-1.918c3.3-0.873,6.675-1.761,7.5-1.973c7.618-1.957,26.195-7.614,27.769-8.457c1.096-0.587,4.184-1.804,6.862-2.704c2.678-0.9,5.477-2.131,6.22-2.734s1.912-1.18,2.598-1.28s4.803-1.894,9.149-3.984c4.346-2.091,8.127-3.774,8.402-3.743c0.275,0.031,2.975-1.305,6-2.97c11.491-6.323,17.576-10.158,19.75-12.444c1.238-1.302,2.25-2.028,2.25-1.615s0.54,0.212,1.2-0.448s1.591-1.2,2.068-1.2s-1.157,2.138-3.633,4.75c-2.476,2.612-6.777,7.146-9.558,10.075c-2.781,2.93-8.539,9.454-12.794,14.5c-4.255,5.047-8.314,9.85-9.019,10.675s-1.165,1.802-1.022,2.17s-0.696,1.718-1.863,3c-1.166,1.281-2.741,3.509-3.5,4.949c-4.143,7.866-6.097,11.014-8.347,13.441c-1.372,1.48-2.293,3.017-2.048,3.414s-0.455,1.69-1.558,2.874s-1.748,2.151-1.434,2.151c0.538,0-3.805,8.334-5.471,10.5c-0.998,1.298-10.851,20.985-15.014,30c-1.778,3.851-4.281,9.25-5.563,12c-1.975,4.237-5.727,15.484-5.894,17.667c-0.028,0.366-0.389,1.004-0.801,1.417c-0.412,0.412-0.754,1.462-0.76,2.333s-1.17,4.059-2.589,7.083c-2.545,5.427-2.794,6.138-3.83,10.927c-0.289,1.335-0.985,2.887-1.548,3.45c-0.563,0.563-1.023,1.664-1.023,2.447c0,1.14,1.205,1.307,6.042,0.834c3.322-0.325,6.471-0.856,6.996-1.181c0.525-0.325,1.936-0.779,3.135-1.011c1.199-0.23,2.438-0.837,2.754-1.348s0.798-0.873,1.073-0.807c0.812,0.196,12.469-6.62,12.833-7.503c0.184-0.445,0.915-0.81,1.625-0.81c0.71,0,7.535-6.074,15.167-13.498c7.631-7.425,13.522-13.499,13.091-13.5c-0.432-0.001,0.47-1.239,2.002-2.752c1.533-1.513,5.711-6.343,9.285-10.733c3.574-4.392,7.847-9.433,9.497-11.202c1.65-1.77,5.025-5.689,7.5-8.71c2.475-3.021,5.322-5.784,6.326-6.14c1.004-0.356,1.619-0.854,1.367-1.105c-0.46-0.46,5.108-6.943,13.057-15.205c2.338-2.43,4.25-4.523,4.25-4.654c0-0.724,9.415-9.5,10.191-9.5c0.51,0,0.72-0.337,0.466-0.75c-0.253-0.412,3.378-4.35,8.071-8.75c4.692-4.399,12.305-11.712,16.917-16.25c4.611-4.537,8.79-8.25,9.284-8.25c0.495,0,2.522-1.575,4.504-3.5c1.982-1.925,4.073-3.5,4.646-3.5s0.782-0.417,0.467-0.928s0.333-1.216,1.441-1.567c1.107-0.352,2.015-1.06,2.015-1.572s0.605-0.933,1.345-0.933c0.74,0,2.202-0.958,3.25-2.13c1.048-1.171,3.653-3.309,5.789-4.75c2.137-1.44,4.91-3.31,6.163-4.153c3.269-2.2,8.564-6.265,9.992-7.669c0.673-0.661,1.408-1.017,1.635-0.79s1.715-0.708,3.308-2.076c1.592-1.368,3.936-2.749,5.207-3.068c1.271-0.318,2.312-1.056,2.312-1.638s0.284-0.774,0.631-0.428c0.348,0.348,1.572-0.027,2.723-0.833s2.743-1.465,3.54-1.465s2.175-0.657,3.063-1.461c0.888-0.804,4.298-2.327,7.578-3.387c3.28-1.059,9.789-3.297,14.465-4.974c10.073-3.612,16.22-5.296,21-5.753c3.252-0.311,5.938-0.739,11.854-1.892c2.111-0.412,18.6-1.678,23.646-1.815c2.864-0.078,18.905,1.336,31.822,2.805c13.269,1.509,30.363,6.802,45.36,14.043c5.051,2.438,9.626,4.434,10.167,4.434s1.134,0.386,1.316,0.856c0.184,0.471,2.623,2.158,5.422,3.75c11.039,6.278,29.412,23.087,29.412,26.908c0,1.169-5.26,7.485-6.233,7.485c-0.305,0-3.23,2.588-6.502,5.75c-15.907,15.379-22.784,21.064-24.003,19.846c-0.282-0.282,0.264-2.443,1.212-4.804s1.904-5.079,2.125-6.042c0.221-0.962,0.679-2.763,1.019-4c1.118-4.076,1.221-12.227,0.169-13.5c-0.567-0.688-0.776-1.25-0.464-1.25c0.312,0-0.608-2.587-2.045-5.75c-3.578-7.878-13.344-17.778-22.695-23.009c-4.103-2.295-8.725-4.475-10.271-4.845c-1.546-0.369-3.261-1.004-3.811-1.408c-1.97-1.451-8.203-2.169-20.884-2.406c-11.334-0.212-16.467,0.158-24.116,1.74c-1.101,0.228-3.736,0.728-5.857,1.111s-5.046,1.179-6.5,1.766c-1.453,0.588-3.899,1.232-5.436,1.432c-1.535,0.199-4.011,0.984-5.5,1.745s-4.282,1.713-6.207,2.115c-1.926,0.402-4.288,1.426-5.25,2.275c-0.963,0.849-1.75,1.236-1.75,0.861c0-0.588-9.421,4.063-15.5,7.652c-7.771,4.588-11.55,7.229-15.336,10.722c-2.385,2.199-4.688,3.998-5.117,3.998s-5.529,4.612-11.332,10.25c-5.804,5.638-13.067,12.498-16.144,15.246c-3.076,2.747-5.846,5.791-6.154,6.765c-0.309,0.973-0.881,1.571-1.272,1.329c-0.391-0.241-9.471,8.554-20.178,19.546c-28.528,29.287-69,69.694-74.932,74.812c-2.834,2.445-6.433,5.225-7.996,6.175c-1.563,0.951-3.674,2.441-4.69,3.312c-1.017,0.871-2.299,1.622-2.849,1.67c-0.55,0.049-1.225,0.443-1.5,0.878c-0.563,0.891-8.442,5.632-17.671,10.635c-9.745,5.282-35.789,11.563-48.579,11.715c-1.512,0.019-2.75,0.401-2.75,0.851c0,0.45,0.424,0.818,0.941,0.818s3.034,2.063,5.593,4.586c5.777,5.695,10.206,14.955,11.946,24.979c1.307,7.527,1.313,11.181,0.047,32.935c-1.226,21.076-1.213,25.721,0.085,31.343c1.689,7.313,5.08,10.542,10.283,9.788c6.133-0.888,7.13-1.208,9.149-2.937c1.076-0.921,1.956-1.356,1.956-0.968s3.825-3.196,8.5-7.967c4.675-4.771,8.5-9.11,8.5-9.645c0-0.533,1.041-1.79,2.313-2.793c1.926-1.518,8.445-11.711,11.079-17.322c0.387-0.825,1.767-3.3,3.065-5.5s4.302-7.825,6.675-12.5c2.372-4.675,4.663-8.649,5.09-8.833c0.428-0.184,0.778-0.971,0.778-1.75s0.477-1.417,1.059-1.417s0.781-0.45,0.441-1c-0.34-0.55-0.066-1,0.608-1c0.674,0,0.951-0.274,0.616-0.609c-0.335-0.336,0.424-2.248,1.687-4.25s3.52-6.228,5.016-9.391c1.496-3.162,3.088-5.75,3.538-5.75c0.451,0,1.129-1.234,1.508-2.744s1.107-3.248,1.618-3.863c0.511-0.616,3.553-6.285,6.761-12.598c6.04-11.889,12.982-23.709,14.042-23.91c1.128-0.213,11.519-0.7,28.608-1.342c9.35-0.351,18.657-0.773,20.683-0.94c4.823-0.396,6.667,0.669,4.88,2.821c-0.719,0.867-0.995,1.576-0.614,1.576c0.382,0-0.013,0.707-0.877,1.571s-1.571,2.413-1.571,3.441s-0.435,2.138-0.965,2.466s-5.766,10.142-11.634,21.809s-13.76,27.063-17.536,34.213c-3.777,7.15-7.596,14.575-8.488,16.5c-0.891,1.925-2,4.175-2.464,5c-0.464,0.825-1.998,3.976-3.408,7c-1.41,3.025-3.206,6.625-3.992,8s-1.977,3.625-2.648,5c-1.407,2.884-1.766,11.435-0.532,12.667c1.321,1.318,9.823,0.784,13.665-0.858c1.925-0.824,3.757-1.455,4.072-1.403c0.314,0.052,1.359-0.692,2.321-1.655c0.963-0.963,2.393-1.75,3.179-1.75c0.785,0,1.429-0.396,1.429-0.879s1.35-1.438,3-2.121c1.649-0.684,3-1.578,3-1.988s1.688-1.895,3.75-3.299c4.722-3.216,11.005-8.707,9.965-8.711c-0.433-0.001-0.224-1.015,0.462-2.252c0.687-1.237,1.152-2.587,1.035-3c-0.116-0.412,0.209-0.75,0.723-0.75c0.515,0,1.505-1.575,2.201-3.5s1.652-3.5,2.124-3.5s0.58-0.45,0.24-1s-0.142-1,0.44-1c0.583,0,1.06-0.675,1.06-1.5s0.449-1.5,1-1.5c0.55,0,0.931-0.337,0.846-0.75c-0.229-1.113,2.981-8.024,4.028-8.672c0.497-0.308,1.186-1.679,1.529-3.048c0.343-1.369,1.933-4.709,3.532-7.421c1.6-2.713,2.643-5.197,2.319-5.521c-0.323-0.324-0.099-0.589,0.501-0.589c0.599,0,1.608-1.575,2.244-3.5c0.635-1.925,1.57-3.5,2.077-3.5c0.508,0,0.923-0.643,0.923-1.429c0-0.785,0.69-2.119,1.535-2.964s1.52-1.777,1.5-2.071c-0.117-1.766,0.161-2.369,2.004-4.348c1.311-1.406,1.578-2.193,0.75-2.203c-0.911-0.012-0.85-0.3,0.211-0.985c0.824-0.533,1.05-0.983,0.5-1c-0.667-0.021-0.667-0.275,0-0.765c0.55-0.404,1.918-2.535,3.041-4.735c4.703-9.219,8.021-15.045,8.959-15.734c0.666-0.49,0.666-0.745,0-0.766c-0.667-0.021-0.667-0.275,0-0.765c0.55-0.404,2.35-3.337,4-6.517c2.802-5.4,5.904-7.822,8.201-6.402c0.449,0.276,2.725,0.154,5.058-0.272c2.489-0.455,4.241-0.394,4.241,0.149c0,0.509,0.417,0.667,0.927,0.352c0.51-0.314,8.272-0.817,17.25-1.116c8.978-0.298,17.891-0.63,19.808-0.735c2.412-0.134,3.574,0.269,3.775,1.308c0.16,0.825-3.096,7.408-7.234,14.629c-4.14,7.22-7.525,13.651-7.525,14.291c0,0.641-0.45,1.707-1,2.371c-0.551,0.665-2.74,4.583-4.865,8.708c-2.126,4.125-7.025,13.575-10.889,21s-8.029,15.525-9.26,18c-1.229,2.476-2.633,5.175-3.117,6c-0.485,0.825-1.137,2.175-1.448,3c-0.311,0.825-0.979,2.175-1.485,3c-6.485,10.572-9.775,20.855-8.069,25.222c1.455,3.726,4.749,4.301,10.505,1.834c2.637-1.131,5.149-2.056,5.583-2.056c2.305,0,34.023-19.325,34.879-21.25c0.184-0.412,0.919-0.75,1.635-0.75c1.123,0,2.399-5.519,3.008-13c0.067-0.825,0.454-2.625,0.858-4c2.433-8.26,3.98-13.626,4.181-14.5c0.127-0.55,0.329-1.45,0.449-2s0.823-2.125,1.562-3.5c1.896-3.528,4.611-11.349,4.265-12.286c-0.159-0.433,0.172-1.107,0.737-1.5s1.852-2.738,2.857-5.214c1.007-2.475,2.416-5.625,3.132-7s1.396-2.95,1.512-3.5s0.676-2.125,1.245-3.5c0.568-1.375,1.139-2.95,1.267-3.5s2.759-5.363,5.846-10.697c3.088-5.333,5.614-10.133,5.614-10.666s0.36-1.12,0.801-1.303c0.439-0.184,2.967-3.934,5.614-8.334c2.647-4.399,5.212-8.149,5.699-8.333s0.886-0.938,0.886-1.679s0.579-1.939,1.287-2.667c0.708-0.727,2.379-3.121,3.713-5.321s2.892-4.547,3.462-5.215c2.315-2.712,3.202-3.949,5.401-7.535c1.265-2.063,2.739-3.75,3.277-3.75c0.537,0,0.699-0.45,0.359-1s-0.238-1,0.225-1c0.465,0,1.678-1.412,2.697-3.138c1.02-1.727,2.487-3.863,3.261-4.75s2.992-3.637,4.93-6.112c12.206-15.586,31.571-36.134,42.727-45.334c2.111-1.741,5.91-5.078,8.443-7.416c2.532-2.337,4.939-4.25,5.35-4.25c0.409,0,2.223-1.35,4.029-3c1.807-1.649,3.61-3,4.01-3s1.896-1.084,3.324-2.408c1.43-1.325,4.237-3.186,6.239-4.136c2.003-0.95,4.119-2.123,4.703-2.606c2.409-1.991,8.427-5.573,14.063-8.371c3.3-1.638,6.149-3.315,6.333-3.729c0.184-0.412,0.946-0.75,1.694-0.75c0.749,0,4.727-1.533,8.84-3.408c4.113-1.874,8.976-3.652,10.806-3.951c1.83-0.3,4.902-0.864,6.827-1.257c7.019-1.428,10.57-0.948,14.357,1.94c2.003,1.527,3.643,3.393,3.643,4.144s0.563,1.554,1.25,1.782c0.836,0.279,1.23,2.549,1.19,6.857c-0.052,5.608-0.679,7.696-4.858,16.174c-2.64,5.354-5.2,9.983-5.69,10.286c-0.491,0.303-0.892,1.451-0.892,2.551s-0.45,1.722-1,1.382s-1-0.15-1,0.422c0,1.279-6.318,11.254-8.53,13.466c-0.887,0.887-1.243,1.619-0.791,1.628c0.451,0.009,0.356,0.346-0.212,0.75s-2.554,3.139-4.413,6.076s-3.876,5.863-4.481,6.5c-1.993,2.097-7.572,9.434-11.286,14.843c-2.008,2.924-4.919,6.588-6.469,8.143s-2.817,3.153-2.817,3.553c0,0.398-2.177,2.952-4.836,5.673s-7.005,7.647-9.656,10.947s-5.537,6.718-6.414,7.595c-0.877,0.878-5.869,6.239-11.094,11.915c-5.226,5.676-13.101,14.117-17.5,18.76c-8.518,8.986-11.48,13.073-4.564,6.293c2.28-2.234,4.654-4.063,5.275-4.063c0.622,0,1.999-0.785,3.061-1.746c1.48-1.34,3.708-1.746,9.579-1.75c10.111-0.005,10.01-0.044,17.322,6.728c4.526,4.191,5.695,7.714,5.896,17.769c0.123,6.142-1.491,15.306-3.084,17.5c-0.398,0.55-1.285,2.738-1.971,4.863c-0.685,2.125-3.025,7.006-5.201,10.846s-3.812,7.12-3.635,7.289c0.45,0.432,4.744,0.744,8.418,0.613c3.143-0.112,7.905-3.275,6.718-4.463c-0.356-0.356-0.048-0.648,0.686-0.648s1.067-0.266,0.743-0.59c-0.714-0.714,7.253-14.035,10.467-17.503c1.259-1.358,2.29-2.779,2.29-3.156s0.75-1.563,1.668-2.634c0.917-1.071,1.404-2.211,1.083-2.532s-0.097-0.585,0.501-0.585c0.597,0,2.119-1.674,3.384-3.72c2.498-4.042,19.211-21.28,20.631-21.28c0.48,0,2.39-1.354,4.243-3.009c5.067-4.524,22.626-12.863,28.49-13.531c8.535-0.971,16.487-1.248,16.061-0.559c-0.224,0.362,0.792,0.605,2.258,0.541c3.624-0.158,10.465,2.981,17.698,8.123l6.017,4.277l2.233-3.407c1.228-1.874,2.233-3.657,2.233-3.964c0-0.306,0.465-1.1,1.034-1.764c0.568-0.664,1.639-2.083,2.378-3.152c0.966-1.396,2.72-2.019,6.217-2.206c2.679-0.144,8.246-0.491,12.371-0.771c4.125-0.281,13.348-0.786,20.494-1.122c7.147-0.337,13.169-0.786,13.382-0.999c0.213-0.212,1.196,0.047,2.186,0.576c1.665,0.891,1.508,1.539-2.114,8.715c-2.152,4.264-4.371,8.296-4.931,8.96c-0.559,0.664-1.017,1.521-1.017,1.906c0,0.585-16.646,34.165-24.481,49.386c-1.273,2.476-4.198,8.55-6.5,13.5c-7.686,16.534-14.479,29.993-15.505,30.714c-0.558,0.393-0.807,0.843-0.554,1s-0.484,2.312-1.638,4.786c-3.639,7.804-4.266,10.624-3.21,14.446c1.081,3.916,3.88,5.249,8.638,4.114c3.53-0.842,13.25-5.672,13.25-6.584c0-0.384,1.575-2.367,3.5-4.408s3.5-3.924,3.5-4.184s1.125-1.686,2.5-3.168c2.295-2.476,2.513-2.533,2.657-0.707c0.087,1.095,0.104,2.665,0.037,3.49c-0.934,11.612-1.453,16.928-1.856,19c-0.268,1.375-0.528,3.063-0.579,3.75s-0.472,1.25-0.935,1.25s-3.525,2.362-6.805,5.25c-8.943,7.874-12.286,10.404-14.77,11.181c-1.237,0.388-2.25,1.051-2.25,1.475c0,0.992-17.123,9.476-23,11.395c-8.672,2.832-18.629,1.565-26.647-3.391c-3.78-2.336-11.353-10.601-11.353-12.389c0-0.702-0.687-1.845-1.524-2.541c-0.838-0.695-1.292-1.496-1.009-1.78c0.283-0.283,0.031-1.099-0.561-1.813c-0.848-1.021-1.485-1.042-2.992-0.102c-1.053,0.658-1.914,1.656-1.914,2.218c0,0.563-1.208,1.917-2.684,3.01s-4.063,3.257-5.75,4.809c-4.377,4.027-8.564,6.953-8.582,5.997c-0.009-0.45-0.386-0.234-0.839,0.479c-1.101,1.736-10.549,4.179-16.146,4.175c-4.069-0.003-7.529-0.909-13.589-3.56c-3.532-1.545-8.051-5.88-10.947-10.503c-1.52-2.426-3.259-4.741-3.863-5.145c-0.641-0.428-0.683-0.748-0.101-0.766c0.55-0.017,0.465-0.37-0.188-0.786c-0.653-0.415-2.379-4.796-3.835-9.734c-2.471-8.382-2.611-9.911-2.115-22.979c0.299-7.87,1.207-16.407,2.073-19.5c1.801-6.426,1.947-8.354,0.569-7.502c-0.947,0.585-2.33,0.951-7.973,2.112c-1.358,0.279-2.998,0.947-3.646,1.484c-0.646,0.536-1.561,0.906-2.03,0.822c-2.471-0.443-5.355,0.224-5.355,1.239c0,0.635-1.125,2.63-2.5,4.433s-2.5,3.703-2.5,4.223c0,0.519-0.659,1.491-1.465,2.159c-0.806,0.669-3.132,3.728-5.17,6.798c-6.166,9.289-33.548,35.954-44.283,43.124c-1.971,1.315-4.595,3.307-5.832,4.424c-1.238,1.118-2.25,1.696-2.25,1.286s-0.707-0.038-1.571,0.826s-2.215,1.571-3,1.571c-0.786,0-1.429,0.45-1.429,1s-0.338,0.916-0.75,0.814c-0.413-0.103-2.369,0.521-4.348,1.385c-10.512,4.591-23.405,5.511-33.831,2.415c-6.492-1.929-9.618-3.974-15.356-10.049c-6.21-6.573-8.874-14.588-9.579-28.815c-0.075-1.513-0.505-2.75-0.956-2.75s-2.207,1.237-3.903,2.75c-12.209,10.887-30.315,24.229-36.817,27.131c-1.123,0.501-2.641,1.633-3.373,2.515c-0.732,0.883-1.798,1.604-2.367,1.604c-0.57,0-4.228,1.534-8.128,3.409c-6.539,3.144-12.645,5.688-15.091,6.29c-0.551,0.135-3.7,0.928-7,1.761c-12.074,3.049-26.452,2.587-30.5-0.98c-0.825-0.728-2.138-1.47-2.917-1.65c-1.769-0.411-5.083-3.513-5.083-4.758c0-0.511-0.692-1.62-1.538-2.466c-2.087-2.087-4.139-9.288-3.935-13.809c0.149-3.313-0.028-3.6-1.681-2.715c-1.016,0.543-1.847,1.449-1.847,2.012c0,0.563-0.385,0.786-0.854,0.496c-0.471-0.291-1.865,0.547-3.1,1.86c-1.234,1.314-3.549,2.93-5.145,3.591s-2.901,1.551-2.901,1.977c0,1.06-13.352,9.278-19.5,12.004c-2.75,1.22-6.8,3.081-9,4.137c-5.996,2.877-16.739,5.537-21.006,5.201c-2.077-0.163-5.399-0.833-7.385-1.488c-1.985-0.655-3.834-1.16-4.109-1.122c-1.01,0.139-6-3.207-6-4.023c0-0.464-0.422-0.583-0.938-0.264c-1.208,0.747-7.644-7.664-9.238-12.074c-0.674-1.863-1.638-3.388-2.143-3.388s-2.372,1.237-4.149,2.75c-11.334,9.643-15.035,12.08-29.532,19.447c-6.437,3.271-6.635,3.303-20.5,3.301c-13.547-0.003-14.16-0.095-18.947-2.841c-7.657-4.392-11.135-8.88-14.333-18.491c-0.67-2.016-0.961-8.359-0.735-16.037c0.413-14.049,0.567-15.3,2.016-16.363c0.614-0.451,0.504-0.741-0.285-0.75c-0.913-0.011-1.014-0.521-0.349-1.766c0.515-0.963,0.922-1.975,0.905-2.25c-0.018-0.275,0.255-2.3,0.604-4.5c0.35-2.2,0.844-6.188,1.099-8.862c0.254-2.674,0.691-5.599,0.971-6.5c0.28-0.9,0.724-3.762,0.986-6.358c0.262-2.597,0.935-6.422,1.494-8.501c0.816-3.032,1.666-10.844,2.26-20.778c0.203-3.388-1.606-13.121-2.552-13.734c-0.623-0.404-0.741-0.741-0.261-0.75s0.316-0.686-0.363-1.505c-1.428-1.721-3.009-1.104-3.009,1.174c0,0.861-1.063,4.097-2.361,7.19c-1.299,3.094-2.936,7.425-3.638,9.625s-1.739,5.125-2.305,6.5c-0.565,1.375-1.104,2.726-1.196,3c-0.092,0.275-0.688,1.758-1.326,3.294c-0.637,1.537-1.458,4.012-1.824,5.5c-0.367,1.488-1.322,3.719-2.123,4.956s-1.196,2.25-0.878,2.25c0.319,0-1.833,4.726-4.78,10.5c-2.948,5.775-5.186,10.5-4.974,10.5c0.212,0-0.368,0.881-1.289,1.956c-0.921,1.076-1.771,2.607-1.887,3.401c-0.117,0.795-1.108,2.727-2.204,4.294c-5.823,8.327-8.372,12.57-7.118,11.849c1.297-0.747-1.349,2.485-6.846,8.366c-1.237,1.323-2.25,2.802-2.25,3.286c0,1.028-20.26,21.817-21,21.547c-0.275-0.101-2.075,1.016-4,2.48c-2.897,2.204-14.5,8.603-14.5,7.997c0-0.1-1.575,0.285-3.5,0.855C157.2,370.195,138.265,371.458,137.493,370.729z M623.574,317.472c2.493-0.926,6.33-3.063,8.525-4.75c4.912-3.773,15.133-13.915,18.508-18.363c1.375-1.813,3.558-4.513,4.851-6s2.977-3.912,3.742-5.389c1.271-2.454,1.22-2.74-0.601-3.317c-1.096-0.348-1.992-1.053-1.992-1.565s-0.569-0.933-1.265-0.933c-0.694,0-2.376-1.8-3.735-4c-1.36-2.2-2.816-4-3.236-4s-0.683-0.337-0.583-0.75c0.1-0.412-0.519-3.003-1.374-5.757c-2.584-8.32-0.539-20.246,5.478-31.94c1.712-3.329,3.023-6.39,2.914-6.803c-0.109-0.412,0.278-0.75,0.86-0.75c0.583,0,0.781-0.45,0.441-1s-0.225-1,0.257-1c0.48,0,1.886-1.8,3.123-4c1.236-2.2,2.594-4,3.018-4c0.423,0,0.769-0.698,0.769-1.551c0-0.938-2.132,0.542-5.398,3.75c-13.895,13.642-33.451,33.604-35.497,36.233c-1.249,1.604-3.171,3.852-4.271,4.992c-1.101,1.142-1.783,2.075-1.519,2.075s-0.243,2.025-1.128,4.5c-2.461,6.885-7.104,21.916-7.517,24.34c-2.067,12.125-2.282,16.544-1.032,21.16c0.298,1.1,0.576,2.322,0.618,2.716c0.115,1.076,5.53,6.423,7.156,7.065C617.128,319.4,618.895,319.208,623.574,317.472z M767.075,308.71c1.633-0.276,4.202-1.414,5.71-2.529c1.508-1.114,3.097-2.03,3.531-2.035c0.914-0.01,6.946-9.241,10.709-16.386c1.418-2.692,3.065-5.482,3.661-6.2c0.596-0.719,1.201-1.891,1.346-2.605c0.835-4.137,1.909-6.8,2.742-6.8c0.522,0,0.673-0.45,0.333-1s-0.214-1,0.28-1c0.495,0,1.515-1.912,2.268-4.25c0.752-2.337,1.612-4.475,1.91-4.75c0.462-0.426,4.733-8.472,9.946-18.734c0.772-1.521,1.672-2.99,2-3.266c0.327-0.274,1.874-3.2,3.438-6.5c1.563-3.3,3.241-6.767,3.729-7.703c1.179-2.262-0.208-3.016-5.937-3.229c-5.046-0.188-15.81,1.918-17.663,3.456c-0.636,0.527-1.437,0.679-1.779,0.336c-0.343-0.342-4.587,3.374-9.433,8.259c-8.872,8.944-13.686,14.382-12.73,14.382c0.572,0-2.595,5.208-3.648,6c-0.804,0.604-6.794,12.291-6.663,13c0.051,0.275-0.6,1.851-1.444,3.5c-1.448,2.826-3.372,11.11-2.962,12.75c0.104,0.413-0.166,0.75-0.599,0.75c-1.088,0-1.486,3.133-1.608,12.645c-0.086,6.67,0.236,8.521,1.779,10.227c1.035,1.145,2.182,1.897,2.547,1.671c0.366-0.226,1.277-0.031,2.026,0.432s1.853,0.671,2.452,0.463S765.443,308.987,767.075,308.71z M650.966,197.246c7.517-6.702,14.163-12.924,16.004-14.982c1.176-1.314,6.975-7.365,12.888-13.446c5.912-6.081,10.755-11.306,10.762-11.609c0.006-0.305,3.943-4.64,8.75-9.635c9.938-10.328,13.508-14.419,12.585-14.419c-0.352,0,0.506-1.061,1.904-2.356c1.398-1.297,3.666-4.109,5.038-6.25c1.373-2.142,3.444-4.887,4.604-6.102s2.107-2.577,2.107-3.027s1.35-2.297,3-4.104c1.649-1.807,3-3.478,3-3.714c0-0.37,5.368-7.876,7.868-11c0.464-0.579,2.141-3.055,3.728-5.5c1.587-2.446,3.14-4.672,3.451-4.947c0.938-0.828,3.438-7.479,2.928-7.786c-0.262-0.158,0.127-0.658,0.862-1.112c0.734-0.455,1.484-2.421,1.665-4.369c0.507-5.446-2.292-5.493-9.39-0.158c-11.15,8.383-31.432,29.634-37.59,39.39c-1.425,2.258-3.363,4.922-4.307,5.92c-3.038,3.215-5.213,6.116-4.585,6.116c0.337,0-1.503,2.476-4.087,5.5c-2.584,3.025-4.326,5.507-3.871,5.516c0.454,0.009,0.326,0.346-0.286,0.75c-1.275,0.843-7.892,10.786-17.615,26.478c-3.7,5.971-7.413,11.541-8.25,12.378s-1.521,1.959-1.521,2.493c0,0.533-0.472,1.514-1.047,2.178c-2.127,2.453-7.547,11.308-8.852,14.458c-0.739,1.788-1.74,3.25-2.223,3.25c-0.483,0-0.879,0.45-0.879,1C647.607,199.64,648.574,199.378,650.966,197.246z" /></svg>